<svg width="1238" height="820" viewBox="0 0 1238 820" fill="none" xmlns="http://www.w3.org/2000/svg">
<g filter="url(#filter0_d)">
<path d="M59 53H1179V755H59V53Z" fill="#FFE0E2"/>
</g>
<path fill-rule="evenodd" clip-rule="evenodd" d="M745.796 77.8493L741.688 75L732 88.9696L736.109 91.8189L745.796 77.8493ZM214.121 92L219.082 92.6239L216.961 109.491L212 108.867L214.121 92ZM132.722 114L135.222 118.33L120.5 126.83L118 122.5L132.722 114ZM334.688 209L338.796 211.849L329.109 225.819L325 222.97L334.688 209ZM281.082 154.624L276.121 154L274 170.867L278.961 171.491L281.082 154.624ZM106.563 169L103 172.508L114.928 184.621L118.491 181.113L106.563 169ZM906.722 221L909.222 225.33L894.5 233.83L892 229.5L906.722 221ZM1116.22 112.33L1113.72 108L1099 116.5L1101.5 120.83L1116.22 112.33ZM1058.12 273L1063.08 273.624L1060.96 290.491L1056 289.867L1058.12 273ZM1110.08 485.624L1105.12 485L1103 501.867L1107.96 502.491L1110.08 485.624ZM924 352.508L927.563 349L939.491 361.113L935.928 364.621L924 352.508ZM778.563 365L775 368.508L786.928 380.621L790.491 377.113L778.563 365ZM278.397 282.537L276 278.149L290.92 270L293.316 274.388L278.397 282.537ZM196.384 291.228L201.329 291.969L203.849 275.157L198.905 274.416L196.384 291.228ZM107.945 256.553L103 255.812L105.52 239L110.465 239.741L107.945 256.553ZM566 448.812L570.945 449.553L573.465 432.741L568.52 432L566 448.812ZM627.308 616.004L624.736 620.292L610.157 611.549L612.729 607.261L627.308 616.004ZM377.638 275.815L381.282 272.392L369.645 260L366 263.423L377.638 275.815ZM481.303 104L485.412 106.849L475.724 120.819L471.616 117.97L481.303 104ZM466.397 275.537L464 271.149L478.92 263L481.316 267.388L466.397 275.537ZM332 114.149L334.397 118.537L349.316 110.388L346.92 106L332 114.149ZM391.945 172.969L387 172.228L389.52 155.416L394.465 156.157L391.945 172.969ZM562.638 127.815L566.282 124.392L554.645 112L551 115.423L562.638 127.815ZM205.093 493.542L200 492.823L202.516 476L207.609 476.719L205.093 493.542ZM132.228 419.308L128.007 416.449L118 430.394L122.221 433.254L132.228 419.308ZM243 339.541L247.896 338L253.287 354.173L248.391 355.713L243 339.541ZM619.896 356L615 357.541L620.391 373.713L625.287 372.173L619.896 356ZM976.397 126.537L974 122.149L988.92 114L991.316 118.388L976.397 126.537ZM1033.15 196.299L1038.14 195.961L1036.99 179L1032 179.338L1033.15 196.299ZM885.329 124.969L880.384 124.228L882.905 107.416L887.849 108.157L885.329 124.969ZM800.938 226.101L803.374 221.734L788.527 213.453L786.091 217.819L800.938 226.101ZM1064.94 598.553L1060 597.812L1062.52 581L1067.46 581.741L1064.94 598.553ZM962.896 263L958 264.541L963.391 280.713L968.287 279.173L962.896 263ZM853 410.541L857.896 409L863.287 425.173L858.391 426.713L853 410.541ZM357.788 539L356 543.688L372.408 549.594L374.195 544.905L357.788 539ZM357.225 372.696L360.916 369.296L372.97 381.897L369.28 385.297L357.225 372.696ZM385.1 385.632L383.444 380.895L367.095 386.962L368.752 391.698L385.1 385.632Z" fill="#FFEFF0"/>
<path fill-rule="evenodd" clip-rule="evenodd" d="M820.615 132.961C821.747 127.894 827.332 125.231 831.982 127.54L852.44 137.703C855.817 139.38 857.565 143.188 856.633 146.843L851.669 166.323C850.537 170.765 845.912 173.349 841.536 171.985L820.859 165.539C816.885 164.3 814.525 160.22 815.432 156.157L820.615 132.961ZM147.827 198.02C145.881 202.84 148.976 208.206 154.121 208.935L207.028 216.44C211.223 217.035 215.155 214.256 215.993 210.102L223.865 171.102C224.759 166.671 221.807 162.379 217.349 161.63L172.338 154.065C168.636 153.443 164.999 155.478 163.594 158.96L147.827 198.02ZM1036.99 327.968C1035.16 332.828 1038.38 338.118 1043.53 338.733L1107.97 346.419C1112.09 346.91 1115.89 344.179 1116.75 340.124L1129.49 279.644C1130.44 275.142 1127.4 270.77 1122.85 270.084L1068.65 261.916C1064.91 261.354 1061.3 263.475 1059.97 267.005L1036.99 327.968ZM414.628 455.366C413.679 460.47 408.193 463.332 403.464 461.19L338.073 431.583C334.637 430.028 332.755 426.285 333.554 422.599L347.007 360.592C347.979 356.112 352.509 353.363 356.931 354.57L422.582 372.48C426.598 373.576 429.103 377.568 428.341 381.661L414.628 455.366ZM173.682 728.255C175.778 733.12 181.937 734.641 186.057 731.312L222.845 701.589C225.864 699.15 226.697 694.896 224.821 691.499L187.006 623.017C184.675 618.795 179.167 617.58 175.276 620.43L143.894 643.414C140.886 645.617 139.799 649.608 141.274 653.033L173.682 728.255ZM883.603 552.139C879.347 555.119 873.425 553.315 871.552 548.47L864.175 529.377C862.814 525.857 864.099 521.865 867.257 519.799L880.669 511.025C884.527 508.501 889.715 509.752 891.998 513.757L901.633 530.653C903.679 534.242 902.656 538.799 899.271 541.169L883.603 552.139ZM1103.03 725.347C1108.33 725.521 1112.32 720.598 1111.07 715.455L1099.62 668.575C1098.58 664.282 1094.25 661.652 1089.96 662.7L1071.06 667.313C1066.82 668.348 1064.19 672.59 1065.16 676.847L1074.55 718.427C1075.35 721.979 1078.45 724.541 1082.09 724.661L1103.03 725.347ZM157.56 304.804C157.453 299.613 152.506 295.898 147.491 297.242L124.533 303.395C120.512 304.473 117.989 308.454 118.732 312.551L122.599 333.861C123.417 338.371 127.85 341.273 132.311 340.218L151.874 335.593C155.544 334.725 158.11 331.413 158.032 327.643L157.56 304.804Z" fill="#FFE6E7"/>
<defs>
<filter id="filter0_d" x="0" y="0" width="1238" height="820" filterUnits="userSpaceOnUse" color-interpolation-filters="sRGB">
<feFlood flood-opacity="0" result="BackgroundImageFix"/>
<feColorMatrix in="SourceAlpha" type="matrix" values="0 0 0 0 0 0 0 0 0 0 0 0 0 0 0 0 0 0 127 0"/>
<feOffset dy="6"/>
<feGaussianBlur stdDeviation="29.5"/>
<feColorMatrix type="matrix" values="0 0 0 0 0.208402 0 0 0 0 0.190642 0 0 0 0 0.329167 0 0 0 0.08 0"/>
<feBlend mode="normal" in2="BackgroundImageFix" result="effect1_dropShadow"/>
<feBlend mode="normal" in="SourceGraphic" in2="effect1_dropShadow" result="shape"/>
</filter>
</defs>
</svg>
