<svg width="1017" height="430" viewBox="0 0 1017 430" fill="none" xmlns="http://www.w3.org/2000/svg">
<g clip-path="url(#clip0)">
<path d="M6.90916 38.3608L19.6945 84.2091L49.8427 75.8019L37.0573 29.9536L6.90916 38.3608Z" fill="#362E2D"/>
<path d="M4.20001 41.5L6.80001 38.5999L35.5 33.7L48.3 75L37.5 99.3L17.3 86.0999L4.20001 41.5Z" fill="white"/>
<path d="M25.8 59.2L38.6 101.2L16.9 87.3L4.20001 41.5L25.8 59.2Z" fill="#4E3734"/>
<path d="M6.79999 39.4L33.6 38.4L46.6 78.8L48.3 75L35.5 33.7L7.59999 38.4L6.79999 39.4Z" fill="#F7F7F7"/>
<path d="M126.9 106.3C143.745 106.3 157.4 92.6447 157.4 75.8C157.4 58.9553 143.745 45.3 126.9 45.3C110.055 45.3 96.4 58.9553 96.4 75.8C96.4 92.6447 110.055 106.3 126.9 106.3Z" fill="#8C503E"/>
<path d="M266.2 364.5C266.2 364.5 270 374 271.7 379.2C273.4 384.4 276.4 390.9 278.9 391.1C281.4 391.3 281.9 381.6 280.3 366.8C278.7 352.1 279.9 350 271.8 350.1C268.2 350.1 266.2 349.8 266.2 349.8V364.5Z" fill="#FF6ED9"/>
<path d="M42.2 415.9C42.2 415.9 31.3 417.6 25.6 419.9C19.9 422.2 15.5 424.5 15.5 427.3C15.5 429.5 25.9 428.8 42.1 428.8C58.7 428.9 63.4 429.3 60.5 420.9C59.5 418 56.9 415.6 56.9 415.6L42.2 415.9Z" fill="#FF6ED9"/>
<path d="M157.4 75.8C157.4 58.9 143.7 45.3 126.9 45.3C122.3 45.3 117.9 46.3 114 48.2L113.2 48.6C112.2 50.5 111.6 52.6 111.6 54.9C111.6 62.2 117.5 68.1 124.8 68.1C125.4 68.1 126 68 126.7 68C125.9 69 125.5 70.3 125.5 71.7C125.5 74.8 127.9 77.4 130.9 77.8C130.6 78.6 130.5 79.4 130.5 80.2C130.5 84 133.6 87.1 137.4 87.1H137.5C138.1 89.9 140.5 91.9 143.5 91.9C144.3 91.9 145.1 91.7 145.8 91.5C146.2 93.6 148.1 95.2 150.3 95.2L152 93.6C155.3 88.6 157.4 82.4 157.4 75.8Z" fill="#4E3734"/>
<path d="M35.8 111.7C35.8 111.7 36.4 101.8 33.5 96.5C30.6 91.2 24.4 88.3 21.5 83.7C18.7 79.1 18.8 72.8 16.1 72.2C13.4 71.6 8.89999 82.4 11.8 87.6C14.6 92.8 18.2 96.2 20 101.5C21.8 106.8 24.6 111.5 26.3 113C28.1 114.5 35.8 111.7 35.8 111.7Z" fill="#8C503E"/>
<path d="M206.3 230.6C206.3 230.6 209.8 239.9 214.7 243.5C219.5 247.1 226.4 247.2 230.9 250.3C235.4 253.3 237.8 259.1 240.5 258.5C243.2 257.9 242.8 246.2 238.1 242.7C233.4 239.1 228.7 237.5 224.9 233.4C221.1 229.3 216.6 226.2 214.4 225.5C212.2 224.8 206.3 230.6 206.3 230.6Z" fill="#8C503E"/>
<path d="M90.2 251.1C90.2 251.1 70.7 291.8 62.2 323.4C51 365.2 42.2 416 42.2 416L56.8 415.8C56.8 415.8 74.5 395.2 100.1 353.5C125.9 311.4 137.6 284.7 137.6 284.7C137.6 284.7 154.9 347.1 166.2 356.9C182 370.6 218.9 370 230.6 369.2C242.3 368.4 266.1 364.6 266.1 364.6V349.9C266.1 349.9 236.1 345.1 224.1 340.1C212.1 335.1 197.8 331 197.8 331C197.8 331 193 297.6 189.5 279.9C186 262.2 181.2 241.9 181.2 241.9L90.2 251.1Z" fill="#5441AF"/>
<path d="M137.7 284.6L143.5 272.4C143.5 272.4 146.8 278.9 146.4 287.2C146.1 295.5 144.3 306.6 144.3 306.6L137.7 284.6Z" fill="#4F3D9D"/>
<path d="M0 125.9C0 125.9 5.2 126.1 13.7 131.6C32.7 143.9 38.9 170.5 61.9 174.4C81.2 177.7 93.7 171.9 93.7 171.9C93.7 171.9 86.2 193.4 84.2 203.2C82.2 213 82.4 230.7 74.4 238.5C66.4 246.3 62.7 250 62.7 250C62.7 250 97.7 256.3 126 251C154.3 245.7 169.7 243.8 174.8 244C180 244.2 188 245.2 188 245.2C188 245.2 184.8 238 181.8 230.7C178.8 223.4 178.1 216 178.1 216C178.1 216 197.1 231.2 200.1 236.2C203.1 241.2 203.6 249.5 203.6 249.5C203.6 249.5 207.9 240.2 210.9 237C213.9 233.8 216.2 230 219.9 227.2C223.6 224.4 225.7 222.2 225.7 222.2C225.7 222.2 221.7 222.5 218.2 219.4C214.7 216.2 195 192.1 191 188.2C187 184.4 172 168 172 168C172 168 170.2 115.8 139.3 116.8C119.8 117.4 108.5 122.3 96.1 129C83.8 135.7 72.9 143 72.9 143C72.9 143 51.9 130.3 44.6 115.1C42.1 110 41 106.2 41 106.2C41 106.2 33.3 107.6 22.7 112.8C11.4 118.5 0 125.9 0 125.9Z" fill="#FF353A"/>
<path d="M93.7 171.9C93.7 171.9 104.6 171.6 114.9 168.5C125.2 165.3 136.3 160.4 139 154.1C141.7 147.8 142.9 141.4 142.9 141.4C142.9 141.4 144.8 151.9 140.4 161.8C136 171.7 121.8 176.5 116.5 178.4C111.2 180.3 89.8 183.7 89.8 183.7L93.7 171.9Z" fill="#E2303D"/>
<path d="M173.2 179.2C173.2 179.2 174.8 196.8 175.5 202C176.2 207.2 178.3 216.2 178.3 216.2L183.5 220.4C183.5 220.4 179.8 209.3 178.4 201.4C176.8 193.5 173.2 179.2 173.2 179.2Z" fill="#E2303D"/>
<path d="M134.4 244.2C130.9 244.2 128.1 241.4 128.1 237.9C128.1 234.4 130.9 231.6 134.4 231.6C137.9 231.6 140.7 234.4 140.7 237.9C140.7 241.4 137.9 244.2 134.4 244.2ZM134.4 232.6C131.5 232.6 129.1 235 129.1 237.9C129.1 240.8 131.5 243.2 134.4 243.2C137.3 243.2 139.7 240.8 139.7 237.9C139.7 235 137.4 232.6 134.4 232.6Z" fill="#5441AF"/>
<path d="M162 143.3C164 143.3 165.8 142.3 167 140.8C166.9 140.4 166.7 140 166.6 139.6C165.7 141.2 164 142.2 162.1 142.2C159.2 142.2 156.8 139.8 156.8 136.9C156.8 134 159.2 131.6 162.1 131.6C162.4 131.6 162.7 131.6 163 131.7C162.8 131.3 162.6 131 162.4 130.6C162.3 130.6 162.2 130.6 162.1 130.6C158.6 130.6 155.8 133.4 155.8 136.9C155.8 140.4 158.5 143.3 162 143.3Z" fill="#5441AF"/>
<path d="M79.6 247C84.6 247 88.7 242.9 88.7 237.9C88.7 232.9 84.7 228.9 79.7 228.8C79.6 229.1 79.5 229.5 79.4 229.8C79.5 229.8 79.5 229.8 79.6 229.8C84.1 229.8 87.7 233.4 87.7 237.9C87.7 242.4 84.1 246 79.6 246C76.2 246 73.2 243.8 72 240.8C71.7 241.1 71.5 241.3 71.2 241.6C72.7 244.8 75.9 247 79.6 247Z" fill="#5441AF"/>
<path d="M104 147.9C100 147.9 96.8 144.7 96.8 140.7C96.8 136.7 100 133.5 104 133.5C108 133.5 111.2 136.7 111.2 140.7C111.2 144.7 107.9 147.9 104 147.9ZM104 134.6C100.6 134.6 97.8 137.4 97.8 140.8C97.8 144.2 100.6 147 104 147C107.4 147 110.2 144.2 110.2 140.8C110.2 137.4 107.4 134.6 104 134.6Z" fill="#5441AF"/>
<path d="M46.8 134.6C44.3 134.6 42.2 132.5 42.2 130C42.2 127.5 44.3 125.4 46.8 125.4C49.3 125.4 51.4 127.5 51.4 130C51.4 132.5 49.3 134.6 46.8 134.6ZM46.8 126.4C44.8 126.4 43.2 128 43.2 130C43.2 132 44.8 133.6 46.8 133.6C48.8 133.6 50.4 132 50.4 130C50.4 128 48.8 126.4 46.8 126.4Z" fill="#5441AF"/>
<path d="M194.9 192.4C194.3 193.5 193.1 194.2 191.8 194.2C189.8 194.2 188.2 192.6 188.2 190.6C188.2 189.2 189 188 190.2 187.4C190 187.2 189.7 186.9 189.5 186.7C188.1 187.5 187.2 189 187.2 190.7C187.2 193.2 189.3 195.3 191.8 195.3C193.4 195.3 194.8 194.5 195.6 193.3C195.4 192.9 195.2 192.6 194.9 192.4Z" fill="#5441AF"/>
<path d="M146.4 181.3C143.9 181.3 141.8 179.2 141.8 176.7C141.8 174.2 143.9 172.1 146.4 172.1C148.9 172.1 151 174.2 151 176.7C151 179.2 149 181.3 146.4 181.3ZM146.4 173.2C144.4 173.2 142.8 174.8 142.8 176.8C142.8 178.8 144.4 180.4 146.4 180.4C148.4 180.4 150 178.8 150 176.8C150 174.8 148.4 173.2 146.4 173.2Z" fill="#5441AF"/>
<path d="M14.2 127.4C12.6 127.4 11.2 128.4 10.5 129.7C10.8 129.9 11.1 130 11.4 130.2C11.9 129.1 13 128.4 14.2 128.4C15.9 128.4 17.3 129.8 17.3 131.5C17.3 132.3 17 133.1 16.4 133.6C16.7 133.8 16.9 134 17.2 134.2C17.9 133.5 18.3 132.5 18.3 131.5C18.3 129.2 16.5 127.4 14.2 127.4Z" fill="#5441AF"/>
<path d="M98.2 203.3C95.2 203.3 92.8 200.9 92.8 197.9C92.8 194.9 95.2 192.5 98.2 192.5C101.2 192.5 103.6 194.9 103.6 197.9C103.6 200.9 101.2 203.3 98.2 203.3ZM98.2 193.4C95.8 193.4 93.8 195.4 93.8 197.8C93.8 200.2 95.8 202.2 98.2 202.2C100.6 202.2 102.6 200.2 102.6 197.8C102.6 195.4 100.7 193.4 98.2 193.4Z" fill="#5441AF"/>
<path d="M196.9 224.5C194.7 224.5 192.8 225.8 191.9 227.7C192.2 227.9 192.4 228.2 192.7 228.4C193.3 226.7 194.9 225.4 196.9 225.4C199.3 225.4 201.3 227.4 201.3 229.8C201.3 231.7 200.1 233.3 198.4 233.9C198.7 234.2 198.9 234.4 199.1 234.7C201 233.8 202.3 232 202.3 229.8C202.3 226.9 199.9 224.5 196.9 224.5Z" fill="#5441AF"/>
<path d="M81.5 166.2C79.2 166.2 77.4 164.4 77.4 162.1C77.4 159.8 79.2 158 81.5 158C83.8 158 85.6 159.8 85.6 162.1C85.6 164.4 83.8 166.2 81.5 166.2ZM81.5 159C79.8 159 78.4 160.4 78.4 162.1C78.4 163.8 79.8 165.2 81.5 165.2C83.2 165.2 84.6 163.8 84.6 162.1C84.6 160.4 83.2 159 81.5 159Z" fill="#5441AF"/>
<path d="M162 216.3C158.8 216.3 156.3 213.7 156.3 210.6C156.3 207.5 158.9 204.9 162 204.9C165.1 204.9 167.7 207.5 167.7 210.6C167.7 213.7 165.2 216.3 162 216.3ZM162 205.8C159.4 205.8 157.3 207.9 157.3 210.5C157.3 213.1 159.4 215.2 162 215.2C164.6 215.2 166.7 213.1 166.7 210.5C166.7 207.9 164.6 205.8 162 205.8Z" fill="#5441AF"/>
<path d="M121.9 213.6C120.2 213.6 118.9 212.2 118.9 210.6C118.9 208.9 120.3 207.6 121.9 207.6C123.5 207.6 124.9 209 124.9 210.6C124.9 212.2 123.6 213.6 121.9 213.6ZM121.9 208.5C120.8 208.5 119.9 209.4 119.9 210.5C119.9 211.6 120.8 212.5 121.9 212.5C123 212.5 123.9 211.6 123.9 210.5C123.9 209.4 123 208.5 121.9 208.5Z" fill="#5441AF"/>
<path d="M49.3 169.3C50.1 168.3 50.6 167 50.6 165.5C50.6 162 47.8 159.2 44.3 159.2C42.7 159.2 41.2 159.8 40.1 160.8C40.3 161.1 40.6 161.3 40.8 161.6C41.7 160.8 43 160.2 44.3 160.2C47.2 160.2 49.6 162.6 49.6 165.5C49.6 166.7 49.2 167.8 48.5 168.7C48.7 168.9 49 169.1 49.3 169.3Z" fill="#5441AF"/>
<path d="M26.3 419.3C26.3 419.3 27.4 419.9 28.1 421C28.8 422.1 28.6 423.8 28.6 423.8" stroke="#5441AF" stroke-miterlimit="10"/>
<path d="M30 417.8C30 417.8 31.1 418.4 31.8 419.5C32.5 420.6 32.3 422.3 32.3 422.3" stroke="#5441AF" stroke-miterlimit="10"/>
<path d="M33.6 416.9C33.6 416.9 34.7 417.5 35.4 418.6C36.1 419.7 35.9 421.4 35.9 421.4" stroke="#5441AF" stroke-miterlimit="10"/>
<path d="M36.9 415.8C36.9 415.8 38 416.4 38.7 417.5C39.4 418.6 39.2 420.3 39.2 420.3" stroke="#5441AF" stroke-miterlimit="10"/>
<path d="M270.9 378.5C270.9 378.5 271.4 377.3 272.5 376.6C273.6 375.9 275.3 376 275.3 376" stroke="#5441AF" stroke-miterlimit="10"/>
<path d="M269.2 374.9C269.2 374.9 269.7 373.7 270.8 373C271.9 372.3 273.6 372.4 273.6 372.4" stroke="#5441AF" stroke-miterlimit="10"/>
<path d="M268.2 371.3C268.2 371.3 268.7 370.1 269.8 369.4C270.9 368.7 272.6 368.8 272.6 368.8" stroke="#5441AF" stroke-miterlimit="10"/>
<path d="M266.9 368.1C266.9 368.1 267.4 366.9 268.5 366.2C269.6 365.5 271.3 365.6 271.3 365.6" stroke="#5441AF" stroke-miterlimit="10"/>
<path d="M523.1 108.3L554.9 146.5L540.1 168.3L509.5 132.2L523.1 108.3Z" fill="#4F3D9D"/>
<path d="M509.5 134.7L509.6 132.4L523.2 109.8L553.3 146.5L543 161.3L532.2 157L509.5 134.7Z" fill="white"/>
<path d="M562.5 176.2L564 174.8L536.8 141.8L509.5 134V134.7L517.2 144.6L562.5 176.2Z" fill="#F7F7F7"/>
<path d="M536.2 142.8L564 176.9L538.7 172.2L509.5 134.7L536.2 142.8Z" fill="#5441AF"/>
<path d="M509.5 132.2V134.7L510.1 134.9L510 131.2L509.5 132.2Z" fill="#362E2D"/>
<path d="M600.6 269.2C600.6 269.2 579.8 287.2 571.8 294.7C563.8 302.2 559.8 305.2 557.8 310.7C555.8 316.2 551.3 355.7 550.5 368C549.7 380.3 549 406.8 549 406.8H562.8C562.8 406.8 567.8 389.3 572.8 379C577.8 368.7 585.1 357 588.3 348C591.5 339 593.1 326.7 593.1 326.7C593.1 326.7 605.9 325.5 620.9 318C635.9 310.5 642.2 306.7 642.2 306.7C642.2 306.7 651.5 325.2 659.5 340.7C667.5 356.2 670.5 361 677.5 367.7C684.5 374.4 711.7 386.1 724.2 389.9C741.5 395.1 756.6 397.1 756.6 397.1L759.1 383.8C759.1 383.8 739.1 373.7 728.2 366.2C718.2 359.3 709.9 351.5 707.4 345C704.9 338.5 701.3 301.4 698.1 284.7C694.9 268 688.6 260.9 688.6 260.9L600.6 269.2Z" fill="#FF6ED9"/>
<path d="M642.1 306.7C642.1 306.7 646.2 304.8 649.7 302.6C653.2 300.4 656.1 298 656.1 298C656.1 298 655.3 303.5 652.8 308.3C650.3 313.1 647.3 317.1 647.3 317.1L642.1 306.7Z" fill="#FF5ED2"/>
<path d="M605.4 312.8L599.4 308.1L604.1 302.1L610.1 306.8L605.4 312.8ZM600.8 308L605.2 311.4L608.6 307L604.2 303.6L600.8 308Z" fill="#5441AF"/>
<path d="M569.2 315.9L564.5 314.7L565.7 310L570.4 311.2L569.2 315.9ZM565.7 314L568.5 314.7L569.2 311.9L566.4 311.2L565.7 314Z" fill="#5441AF"/>
<path d="M638.1 292.5L633.4 291.3L634.6 286.6L639.3 287.8L638.1 292.5ZM634.6 290.6L637.4 291.3L638.1 288.5L635.3 287.8L634.6 290.6Z" fill="#5441AF"/>
<path d="M583.8 336.5L577.4 330.7L583.2 324.3L589.6 330.1L583.8 336.5ZM578.8 330.7L583.7 335.2L588.2 330.3L583.3 325.8L578.8 330.7Z" fill="#5441AF"/>
<path d="M669.4 293.6L663.7 288.6L668.7 282.9L674.4 287.9L669.4 293.6ZM665.1 288.6L669.3 292.3L673 288.1L668.8 284.4L665.1 288.6Z" fill="#5441AF"/>
<path d="M562.2 396.6L557.5 395.2L558.9 390.5L563.6 391.9L562.2 396.6ZM558.8 394.5L561.5 395.3L562.3 392.6L559.6 391.8L558.8 394.5Z" fill="#5441AF"/>
<path d="M555.9 378L554.4 370.9L561.5 369.4L563 376.5L555.9 378ZM555.6 371.6L556.7 376.8L561.9 375.7L560.8 370.5L555.6 371.6Z" fill="#5441AF"/>
<path d="M553.2 341.4C553.2 341.8 553.1 342.3 553.1 342.7L554.4 341.9L556.9 345.7L553.1 348.2L552.6 347.5C552.5 348 552.5 348.6 552.4 349.1L552.7 349.6L558.2 346.1L554.7 340.6L553.2 341.4Z" fill="#5441AF"/>
<path d="M591.2 282.7L586.7 285.4L585.1 282.8C584.8 283 584.6 283.2 584.3 283.5L586.3 286.8L592.5 283.1L589.8 278.7C589.5 278.9 589.3 279.1 589 279.4L591.2 282.7Z" fill="#5441AF"/>
<path d="M681.5 343.8L676.7 337.9L682.6 333.1L687.4 339L681.5 343.8ZM678.2 338.1L681.7 342.4L686 338.9L682.5 334.6L678.2 338.1Z" fill="#5441AF"/>
<path d="M684.3 366.3L680 364.1L682.2 359.8L686.5 362L684.3 366.3ZM681.3 363.7L683.9 365L685.2 362.4L682.6 361.1L681.3 363.7Z" fill="#5441AF"/>
<path d="M689 307.2L684.7 305L686.9 300.7L691.2 302.9L689 307.2ZM686 304.5L688.6 305.8L689.9 303.2L687.3 301.9L686 304.5Z" fill="#5441AF"/>
<path d="M709.8 349.7C709.6 349.4 709.4 349.2 709.2 348.9L705.6 351.4L701.8 345.9L706.5 342.7C706.4 342.4 706.3 342 706.3 341.6L700.5 345.6L705.4 352.7L709.8 349.7Z" fill="#5441AF"/>
<path d="M746.6 387.2L739.3 387.1L739.4 379.8L746.7 379.9L746.6 387.2ZM740.3 386.1L745.6 386.2L745.7 380.9L740.4 380.8L740.3 386.1Z" fill="#5441AF"/>
<path d="M712 384.2L709.8 378L716 375.8L718.2 382L712 384.2ZM711.1 378.6L712.6 382.9L716.9 381.4L715.4 377.1L711.1 378.6Z" fill="#5441AF"/>
<path d="M653.3 328.8L662.4 332.3L659.3 340.4C659.3 340.5 659.4 340.6 659.4 340.6C659.6 340.9 659.7 341.2 659.9 341.6L663.7 331.7L652.6 327.4C652.8 327.9 653 328.3 653.3 328.8Z" fill="#5441AF"/>
<path d="M572 360.9L577.5 368.5L578.8 367.5C579.2 366.8 579.5 366.2 579.9 365.5L577.7 367.1L573.4 361.1L579.4 356.8L582.4 360.9C582.6 360.6 582.7 360.2 582.9 359.9L579.7 355.4L572 360.9Z" fill="#5441AF"/>
<path d="M643.8 132.4C660.645 132.4 674.3 118.745 674.3 101.9C674.3 85.0553 660.645 71.4 643.8 71.4C626.955 71.4 613.3 85.0553 613.3 101.9C613.3 118.745 626.955 132.4 643.8 132.4Z" fill="#DF8E89"/>
<path d="M549.1 406.7C549.1 406.7 549.4 410.5 547.8 411.3C544.7 413.1 539.6 416 536.7 417.9C532.4 420.7 527.1 425.6 527.6 428.1C528.1 430.5 537.2 428.3 550.4 423.2C563.6 418.2 566.1 419.6 563.8 411.8C562.8 408.3 562.5 406.4 562.5 406.4L549.1 406.7Z" fill="#5441AF"/>
<path d="M756.4 397C756.4 397 760.1 397.5 760.7 399.2C761.8 402.6 763.7 408.2 765 411.4C766.9 416.2 770.7 422.3 773.2 422.3C775.7 422.3 775.3 412.9 773 399C770.7 385.1 772.6 382.9 764.5 383.6C760.9 383.9 759 383.8 759 383.8L756.4 397Z" fill="#5441AF"/>
<path d="M551.9 178C551.9 178 549.6 168.4 545.2 164.2C540.9 160 534.1 159 530 155.5C525.9 152 524.2 145.9 521.5 146.1C518.8 146.3 517.7 158 521.9 162.1C526.1 166.2 530.6 168.4 533.9 173C537.2 177.6 541.3 181.2 543.3 182.1C545.3 183 551.9 178 551.9 178Z" fill="#DF8E89"/>
<path d="M703.7 73.1C703.7 73.1 703.5 66.3 706.4 61C709.3 55.7 717.5 52.5 720.3 47.9C723.1 43.3 727.7 38.7 730.4 38.1C733.1 37.5 732.9 45.8 730.1 51C727.3 56.2 721.2 57.5 719.4 62.9C717.6 68.3 714.8 72.9 713.2 74.4C711.5 75.8 703.7 73.1 703.7 73.1Z" fill="#DF8E89"/>
<path d="M622.2 67.7C622.2 67.7 620.2 80.2 631.3 87C642.4 93.8 650.2 90.4 650.2 90.4C650.2 90.4 647.9 102.5 655.1 112C662.3 121.5 665.5 123.4 665.5 123.4C665.5 123.4 683.4 110.3 679.4 96.2C677.1 88.2 671.7 86.3 671.7 86.3C671.7 86.3 672 78.4 663.7 72.3C655.4 66.2 639.4 71.2 632.7 70.8C626 70.4 622.2 67.7 622.2 67.7Z" fill="#FF353A"/>
<path d="M542.1 184.2L551.6 174.2L558.6 181.5C558.6 181.5 568.4 183.3 573.2 184.9C578 186.5 582.1 189.2 582.1 189.2C582.1 189.2 605 168.3 617.2 162.2C629.4 156 648.4 152.2 663.2 144.9C678 137.6 691.2 123.6 691.2 123.6C691.2 123.6 696.2 107.8 698 101.4C699.8 95.1 702 83.9 702 83.9V72.8H715V83C715 83 719 93.7 720.2 111.8C721.4 130 717 144.6 717 144.6C717 144.6 699.5 160.8 693.3 166.9C687.1 173.1 679 181.6 679 181.6C679 181.6 684.7 202.1 689.5 223.1C694.3 244.1 695.2 263.1 695.2 263.1C695.2 263.1 673.9 279.1 644.5 280.1C615.1 281.1 595.7 269.4 595.7 269.4C595.7 269.4 596 252.1 597.4 240.6C598.7 229.1 604.7 212.1 604.7 212.1C604.7 212.1 599.7 217.8 595 221.3C590.3 224.8 585 227.6 585 227.6C585 227.6 570.8 222.8 562.2 211.6C553.5 200.4 549.5 190.9 549.5 190.9L542.1 184.2Z" fill="#5441AF"/>
<path d="M604.7 212.2C604.7 212.2 610.3 195.9 613.5 186.9C616.7 177.9 618.2 174.5 618.2 174.5C618.2 174.5 610.4 181.9 606 194.2C601.6 206.5 598.3 218.8 598.3 218.8L604.7 212.2Z" fill="#4F3D9D"/>
<path d="M445.2 267.1L447.3 263.3L480.1 244.2L493 267.1L492.4 269.9L458.3 289.7L445.2 267.1Z" fill="#FF5ED2"/>
<path d="M479.429 247.358L445.222 267.108L458.222 289.624L492.429 269.874L479.429 247.358Z" fill="#FF6ED9"/>
<path d="M311.2 414.6C311.2 414.6 305.6 380.3 310.9 346.7C316.3 312.6 325.4 277 325.4 277C325.4 277 354.2 283 374.7 279.2C395.2 275.4 419.7 268.5 419.7 268.5C419.7 268.5 423.9 287.8 426.3 310.8C428.6 333.8 427.1 330.3 430.4 341.6C433.7 352.9 445.3 385.9 449.6 395.6C454 405.3 458.7 417.3 458.7 417.3H443.4C443.4 417.3 413.2 385.8 400.4 366.8C387.6 347.8 371.8 314.1 371.8 314.1C371.8 314.1 354.8 349.3 347.9 363.9C341 378.6 323.7 417.9 323.7 417.9L311.2 414.6Z" fill="#4E3734"/>
<path d="M373.9 149C390.027 149 403.1 135.927 403.1 119.8C403.1 103.673 390.027 90.6 373.9 90.6C357.773 90.6 344.7 103.673 344.7 119.8C344.7 135.927 357.773 149 373.9 149Z" fill="#DF8E89"/>
<path d="M398.9 135C401.6 130.6 403.2 125.3 403.2 119.8C403.2 103.6 390.1 90.6 374 90.6C368 90.6 362.5 92.4 357.9 95.5C357.9 95.5 354.7 106 362.5 112.9C370.4 119.9 378.9 115.9 378.9 115.9C378.9 115.9 375.6 126 384.2 132.3C391.5 137.7 398.9 135 398.9 135Z" fill="#4E3734"/>
<path d="M402.2 108C416.007 108 427.2 96.8071 427.2 83C427.2 69.1929 416.007 58 402.2 58C388.393 58 377.2 69.1929 377.2 83C377.2 96.8071 388.393 108 402.2 108Z" fill="#4E3734"/>
<path d="M375.1 297.6C375.1 297.6 374.1 304.4 373.3 308C372.5 311.6 371.7 314.2 371.7 314.2L380.3 331.7C380.3 331.7 380.7 317.2 379.1 309.1C377.5 301 375.1 297.6 375.1 297.6Z" fill="#362E2D"/>
<path d="M311.2 414.6C311.2 414.6 301.3 416.3 296.2 416.9C291.1 417.5 284.5 419.2 283.9 421.6C283.3 424 292.1 426.4 305.9 427.9C319.7 429.3 320.9 430.9 322.1 423.1C322.6 419.5 323.5 418.1 323.5 418.1L311.2 414.6Z" fill="#FF353A"/>
<path d="M445.9 417.5C445.9 417.5 436.8 419.1 432 421.1C427.2 423.1 423.5 425.2 423.5 427.7C423.5 429.6 432.2 429 445.8 429.1C459.7 429.2 463.6 429.5 461.2 422C460.4 419.4 458.1 417.3 458.1 417.3L445.9 417.5Z" fill="#FF353A"/>
<path d="M282.5 209.6C282.5 209.6 277.9 203.9 274.7 202.1C271.5 200.3 266 198.3 263.4 196.8C260.8 195.3 255.6 191.8 254.1 194.1C252.6 196.4 254.9 200.4 258.5 202.5C262.1 204.7 267.7 214.3 273 215C278.3 215.7 280.6 215.9 280.6 215.9L282.5 209.6Z" fill="#DF8E89"/>
<path d="M459.6 245.9C459.6 245.9 461.9 245 465.3 248.4C468.7 251.8 471.9 259.6 473.1 262.5C474.3 265.4 474.6 268.3 475.7 270.3C476.8 272.4 477.1 274.6 475.7 275.4C474.3 276.2 470.1 273 466.8 269.7C463.5 266.4 459.5 264.2 457.4 259.7C455.4 255.4 455.6 251.9 455.6 251.9L459.6 245.9Z" fill="#DF8E89"/>
<path d="M284 205C284 205 299.6 207.8 305.1 208.8C310.6 209.8 317.1 211 317.1 211C317.1 211 332.6 191.2 343.2 180.3C353.8 169.5 359.6 162 375.3 162C395.5 162 419.2 187.6 432.1 202.7C447 220.2 461.2 243.5 461.2 243.5L453.4 255.3C453.4 255.3 435.3 241.6 428.1 237.6C420.9 233.6 410.4 228.3 410.4 228.3C410.4 228.3 414.2 238.6 416.8 250.1C419.4 261.6 419.8 268.4 419.8 268.4C419.8 268.4 403.1 279.7 373.7 281.4C344.3 283.1 325.5 276.9 325.5 276.9C325.5 276.9 327.1 265.6 328.8 258.2C330.5 250.9 332.4 244.4 332.4 244.4C332.4 244.4 321.8 245.3 308.1 240.5C290.3 234.3 279.2 220.4 279.2 220.4L284 205Z" fill="#7B6DCF"/>
<path d="M332.3 244.5C332.3 244.5 329.8 253.5 329.1 256.7C328.4 259.9 327.6 263.9 327.6 263.9C327.6 263.9 359 233.2 365.8 225.7C372.6 218.2 384.7 204.9 384.4 193.2C384.1 181.5 381.8 178.9 381.8 178.9C381.8 178.9 383.2 186.4 380.5 194.1C376.7 204.8 360.9 218.7 353.4 225.7C347.2 231.6 332.3 244.5 332.3 244.5Z" fill="#6A5AC1"/>
<path d="M401.4 196.9C401.4 196.9 405.5 208.7 407.1 214.2C408.7 219.7 410.3 228.3 410.3 228.3L416.3 231.4C416.3 231.4 412 218.9 409.3 212C406.6 205.1 401.4 196.9 401.4 196.9Z" fill="#6A5AC1"/>
<path d="M404.8 236.3L404.3 240.6L407.5 243.4L403.4 244.2L401.7 248.1L399.6 244.4L395.3 244.1L398.2 240.9L397.3 236.8L401.1 238.5L404.8 236.3Z" fill="#FF6ED9"/>
<path d="M419.7 268.5C419.7 268.5 419.6 266.8 419.2 263.6L417.2 266L413.7 265.7L415.6 268.7L414.3 271.6C417.9 269.7 419.7 268.5 419.7 268.5Z" fill="#FF6ED9"/>
<path d="M336.4 190.6L338 193.4L339.3 190.4L342.5 189.7L340 187.6L340.4 184.4L338.4 185.6C337 187.1 335.6 188.7 334.2 190.4L336.4 190.6Z" fill="#FF6ED9"/>
<path d="M337 279.6L340.5 278.8L337.2 276.1L337.6 271.9L334 274.2L330.1 272.6L331.2 276.7L329.9 278.2C331.7 278.6 334.1 279.1 337 279.6Z" fill="#FF6ED9"/>
<path d="M387.4 265.7L389.8 266.4L391.7 264.7L391.8 267.2L394 268.5L391.7 269.4L391.1 271.8L389.5 269.9L387.1 270.1L388.4 268L387.4 265.7Z" fill="#FF6ED9"/>
<path d="M339.4 217.2L342.5 218L345 215.9L345.2 219.2L347.9 220.8L344.9 222L344.2 225.1L342.1 222.6L338.9 222.9L340.7 220.2L339.4 217.2Z" fill="#FF6ED9"/>
<path d="M449.1 225.1L448.8 225.3L445.7 224.5L447 227.5L445.3 230.2L448.5 229.9L450.5 232.4L451.2 229.3L451.8 229.1C451 227.8 450.1 226.5 449.1 225.1Z" fill="#FF6ED9"/>
<path d="M374.7 223.6L376.4 224L377.7 222.9L377.8 224.6L379.3 225.5L377.7 226.1L377.3 227.8L376.2 226.5L374.5 226.7L375.4 225.2L374.7 223.6Z" fill="#FF6ED9"/>
<path d="M316 234.9L317.4 233.9V232.2L318.8 233.2L320.4 232.6L319.9 234.3L321 235.7H319.2L318.2 237.1L317.7 235.4L316 234.9Z" fill="#FF6ED9"/>
<path d="M448.9 247.4L450.6 247.8L451.9 246.7L452 248.4L453.5 249.3L451.9 250L451.5 251.7L450.4 250.3L448.7 250.5L449.6 249L448.9 247.4Z" fill="#FF6ED9"/>
<path d="M374.7 169.9L376.4 170.4L377.7 169.2L377.8 171L379.3 171.9L377.7 172.5L377.3 174.2L376.2 172.9L374.5 173L375.4 171.5L374.7 169.9Z" fill="#FF6ED9"/>
<path d="M418.9 201.1L420.6 201.5L421.9 200.4L422 202.1L423.5 203L421.9 203.6L421.5 205.3L420.4 204L418.6 204.2L419.6 202.7L418.9 201.1Z" fill="#FF6ED9"/>
<path d="M294.6 217.7L297.5 218.5L299.8 216.5L300 219.5L302.6 221.1L299.8 222.2L299.1 225.2L297.2 222.8L294.1 223.1L295.8 220.5L294.6 217.7Z" fill="#FF6ED9"/>
<path d="M356.6 248.1L361.8 252.1L367.9 250L365.8 256.1L369.6 261.3L363.2 261.2L359.4 266.5L357.5 260.3L351.4 258.3L356.7 254.6L356.6 248.1Z" fill="#FF6ED9"/>
<path d="M359 184.4L363.1 187.5L368 185.9L366.3 190.7L369.4 194.9L364.2 194.8L361.2 198.9L359.7 194L354.9 192.5L359.1 189.5L359 184.4Z" fill="#FF6ED9"/>
<path d="M428.1 227.2L425.3 222.9L423.6 227.7L418.6 229L422.6 232.2L422.5 234.7C423.2 235.1 423.9 235.4 424.5 235.8L426.6 234.4L431.4 236.3L430 231.4L433.3 227.4L428.1 227.2Z" fill="#FF6ED9"/>
<path d="M395.9 184.4L401.6 181.3L407.4 184.2L406.2 177.8L407 177C404.5 174.9 401.9 172.9 399.3 171.1L398.7 172.5L392.3 173.6L397 178L395.9 184.4Z" fill="#FF6ED9"/>
<path d="M833.5 251.8C833.5 251.8 829.7 288.8 844.5 332.1C859.3 375.4 877.3 415.7 877.3 415.7H892.6C892.6 415.7 895.1 377.6 894.6 352.6C894.1 327.6 893.8 308.8 893.8 308.8C893.8 308.8 905.7 320.4 912.3 324.6C918.9 328.8 926.7 328.5 935.8 326.7C944.9 324.9 989.7 313.8 989.7 313.8L988.7 301.3C988.7 301.3 969.2 295 957.1 292.8C945 290.6 931.3 286.3 931.3 286.3C931.3 286.3 925.4 269.6 918.4 255.7C911.4 241.8 908.6 237.3 908.6 237.3L833.5 251.8Z" fill="#7B6DCF"/>
<path d="M893.8 308.8C893.8 308.8 884.9 301.6 878.9 295.1C872.9 288.6 868.3 281.5 868.3 281.5C868.3 281.5 874.7 296.4 882.9 304.5C890.5 312.1 893.9 314 893.9 314L893.8 308.8Z" fill="#6A5AC1"/>
<path d="M886.3 332.4L878.1 325.1L888.5 325.5L886.3 332.4Z" fill="#FF6ED9"/>
<path d="M864.9 311.4L868.9 305L869.8 312.1L864.9 311.4Z" fill="#FF6ED9"/>
<path d="M886.1 401.5L883.3 394.4L889.6 397.9L886.1 401.5Z" fill="#FF6ED9"/>
<path d="M900.1 266.4L901.9 274.3L894.4 271.7L900.1 266.4Z" fill="#FF6ED9"/>
<path d="M868.8 380.1L873.6 379.5L871.6 383.9L868.8 380.1Z" fill="#FF6ED9"/>
<path d="M920.3 298.1L925.2 297.4L923.1 301.9L920.3 298.1Z" fill="#FF6ED9"/>
<path d="M940.2 306.3L943.8 300.1L947.4 305.8L940.2 306.3Z" fill="#FF6ED9"/>
<path d="M978.3 309.9L983.3 305.2L986.1 309.5L978.3 309.9Z" fill="#FF6ED9"/>
<path d="M871.5 263L872.2 258.1L875.9 261.4L871.5 263Z" fill="#FF6ED9"/>
<path d="M856.7 342L864.8 350.2L853.8 352.7L856.7 342Z" fill="#FF6ED9"/>
<path d="M902.2 292L898.4 302.9L891.3 294.1L902.2 292Z" fill="#FF6ED9"/>
<path d="M957.8 297.4L967.1 306.1L956.7 310.7L957.8 297.4Z" fill="#FF6ED9"/>
<path d="M850.5 276L857.5 284.7L860 276H850.5Z" fill="#FF6ED9"/>
<path d="M918.4 255.7C918.2 255.2 917.9 254.8 917.7 254.3L914.5 251.9L915.1 269.1L922.2 263.6C921 261 919.7 258.3 918.4 255.7Z" fill="#FF6ED9"/>
<path d="M833.1 264.3C833.1 266.6 833.2 269.1 833.3 271.9L838 272.6L833.5 264L833.1 264.3Z" fill="#FF6ED9"/>
<path d="M894.6 361.8C894.6 358.6 894.6 355.5 894.5 352.6C894.5 352 894.5 351.4 894.5 350.8L879.1 355.7L894.6 361.8Z" fill="#FF6ED9"/>
<path d="M935.1 314L923.2 322.1L932.3 327.4C933.4 327.2 934.5 327 935.7 326.8C936.6 326.6 938 326.3 939.6 326L935.1 314Z" fill="#FF6ED9"/>
<path d="M839.6 315.6H850.2L840.6 295.8L837.7 307.7C838.4 310.3 839 312.9 839.6 315.6Z" fill="#FF6ED9"/>
<path d="M873.2 126.4C889.327 126.4 902.4 113.327 902.4 97.2C902.4 81.0733 889.327 68 873.2 68C857.073 68 844 81.0733 844 97.2C844 113.327 857.073 126.4 873.2 126.4Z" fill="#8C503E"/>
<path d="M989.5 313.8C989.5 313.8 992.1 324.2 993.7 329.2C995.3 334.1 998.3 340.3 1000.7 340.4C1003.2 340.5 1003.8 331.3 1002.4 317.3C1001 303.3 1002.2 301.4 994.1 301.5C990.5 301.5 988.6 301.3 988.6 301.3L989.5 313.8Z" fill="#4E3734"/>
<path d="M877.3 415.7C877.3 415.7 866.9 417.9 861.2 420.1C855.5 422.3 851.1 424.7 851.1 427.5C851.1 429.7 861.5 429 877.7 429C894.3 429.1 899 429.5 896.1 421.1C895.1 418.2 892.6 415.6 892.6 415.6H877.3V415.7Z" fill="#4E3734"/>
<path d="M819.1 58.6C819.1 58.6 816.7 51.5 817 47.6C817.3 43.7 818.5 37.7 818.7 34.5C818.9 31.3 818.7 24.8 821.5 24.6C824.3 24.4 826.4 28.5 826.3 32.9C826.2 37.3 831.3 47.4 829 52.6C826.7 57.8 825.6 60 825.6 60L819.1 58.6Z" fill="#8C503E"/>
<path d="M990.1 141.2C990.1 141.2 997.2 138.8 1000.1 136.3C1003 133.8 1007.1 129.2 1009.6 127.1C1012.1 125 1017.4 121.2 1015.8 118.9C1014.2 116.6 1009.7 117.3 1006.2 120.1C1002.8 122.8 991.6 124.8 988.8 129.7C986 134.6 985 136.9 985 136.9L990.1 141.2Z" fill="#8C503E"/>
<path d="M813.3 56.8L829.8 60.6C829.8 60.6 828.2 100.8 829.5 106.3C831.3 113.5 861.3 137.3 861.3 137.3C861.3 137.3 893.8 137.6 904.3 141.6C914.8 145.6 925.8 152.9 935.8 153.6C945.8 154.3 982.6 132.6 982.6 132.6L994.4 144.6C994.4 144.6 983.9 158.5 976.6 165.4C967.1 174.4 951.6 186.9 940.8 188.4C930 189.9 896.5 177.4 896.5 177.4C896.5 177.4 904 203.4 909.7 214.7C915.5 226 921 234.2 921 234.2C921 234.2 895.1 249.7 873.2 254C851.3 258.3 826.5 254 826.5 254C826.5 254 819.7 235.7 825 206C830.3 176.3 834 169 834 169C834 169 807.7 133.3 803.5 118.7C799.3 104.1 813.3 56.8 813.3 56.8Z" fill="#FF6ED9"/>
<path d="M882.8 162.4C882.8 162.4 887.6 169.7 891 172.7C894.3 175.6 896.6 177.4 896.6 177.4L901.7 193.8C901.7 193.8 892.4 186.9 888.9 180.1C885.2 173.2 882.8 162.4 882.8 162.4Z" fill="#FF5ED2"/>
<path d="M834 168.8C834 168.8 837.6 158.7 843.9 151.3C851.1 143 861.2 137.3 861.2 137.3L857.9 134.7C857.9 134.7 848.8 138.2 840.7 147.2C833.7 155 830.8 164.6 830.8 164.6L834 168.8Z" fill="#FF5ED2"/>
<path d="M902.5 97.2C902.5 81 889.4 68 873.3 68C866.7 68 860.5 70.2 855.6 74C855.6 74 848.5 83.5 858.3 89.6C868.1 95.7 874.9 91.2 874.9 91.2C874.9 91.2 877.4 93.4 877.2 97.3C876.7 104.6 866.9 106.3 867.1 115.7C867.4 128.7 881.9 126.7 881.9 133.6C881.9 139.6 874.2 143.3 873.5 151.3C872.8 159.5 876.7 165.6 882.7 166.9C902.3 171.2 908.5 148.4 909.5 142C910.5 135.6 908.1 123.2 904.5 111.1C903.4 107.2 902.5 97.2 902.5 97.2Z" fill="white"/>
<path d="M835.034 1.68794L794.936 27.3396L811.803 53.7067L851.902 28.0551L835.034 1.68794Z" fill="#4F3D9D"/>
<path d="M831.1 0L834.7 1.6L847.8 27.7L812 52L792.3 56.8V25.6L831.1 0Z" fill="white"/>
<path d="M831.3 31.9L791.2 57.6L791.1 25.6L831.1 0L831.3 31.9Z" fill="#5441AF"/>
<path d="M831.1 0L834.9 1.8L835.1 2.4L831.1 0.9V0Z" fill="#4F3D9D"/>
<path d="M833.9 1.90002L842.8 27.3L804.6 53.8L812 52L847.8 27.7L835.1 2.40002L833.9 1.90002Z" fill="#F7F7F7"/>
<path d="M824.5 50.3L825.2 43L828.1 41.1L828.9 44.1L824.5 50.3Z" fill="#8C503E"/>
<rect x="18.2824" y="245.392" width="5" height="17" transform="rotate(136.798 18.2824 245.392)" fill="#FFEFF0"/>
</g>
<defs>
<clipPath id="clip0">
<rect width="1016.1" height="429.1" fill="white"/>
</clipPath>
</defs>
</svg>
